<svg id="Layer_1" data-name="Layer 1" xmlns="http://www.w3.org/2000/svg" viewBox="0 0 20.03 19.12"><defs><style>.cls-1{fill:#6563ff;}</style></defs><path class="cls-1" d="M22,9.67A1,1,0,0,0,21.14,9l-5.69-.83L12.9,3a1,1,0,0,0-1.34-.46A1,1,0,0,0,11.1,3L8.55,8.16,2.86,9a1,1,0,0,0-.56,1.68l4.13,4-1,5.68a1,1,0,0,0,1.45,1.07L12,18.76l5.1,2.68a.93.93,0,0,0,.46.12,1,1,0,0,0,.59-.19,1,1,0,0,0,.4-1l-1-5.68,4.13-4A1,1,0,0,0,22,9.67Zm-6.15,4a1,1,0,0,0-.29.89l.72,4.19L12.05,16.5,7.82,18.75l.72-4.19a1,1,0,0,0-.29-.89l-3-3,4.21-.61a1,1,0,0,0,.76-.55L12,5.7l1.88,3.82a1,1,0,0,0,.76.55l4.21.61Z" transform="translate(-2.01 -2.44)"/><polygon class="cls-1" points="10.04 4.31 10.04 1.67 7.31 6.71 1.58 7.77 5.38 12.17 4.57 17.84 10.04 15.27 10.04 4.31"/></svg>