<svg id="Layer_1" data-name="Layer 1" xmlns="http://www.w3.org/2000/svg" viewBox="0 0 967.41 240.5"><path d="M543.85,1085.32a119,119,0,0,1-2.86-21.41c-.68-9.14-1.23-19.65-1.64-31.79-.82-23.46-2.59-47.33-5.45-71.75s-8.46-43.65-17.06-57.84a3,3,0,0,1-.54-1.64c0-1.77,1.09-2.73,3.41-2.73,1.91,0,3.41,1.09,4.5,3.14,7.09,15.55,12,36.56,14.73,62.89s4.64,51.56,5.6,75.57c.68,14.73,1.36,27,2.32,36.42.81,9.55,1.91,14.33,3.27,14.33s4.5-6.42,9.41-19.24c7.37-18.82,14.19-35.6,20.46-50.47q33.57-78.78,87.58-135A447.7,447.7,0,0,1,704,853.28c.55-.41.82-.54,1.1-.54a1.88,1.88,0,0,1,1.5.82,2.18,2.18,0,0,1,.68,1.36,1.9,1.9,0,0,1-.82,1.5,344.61,344.61,0,0,0-36.83,31.51q-53.21,55.25-86.9,134.1c-8.05,18.82-14.18,33.69-18.41,44.74q-7.79,20.46-11.05,24.56a3.75,3.75,0,0,1-3.41,1.9C547.13,1093.23,545.08,1090.64,543.85,1085.32Z" transform="translate(-516.3 -852.74)"/><path d="M635.38,1021.34a19.7,19.7,0,0,1,3.82-12,14.2,14.2,0,0,1,11-5.59,6.85,6.85,0,0,1,3.68,1.09,3.63,3.63,0,0,1,1.64,3.14c0,3.13-1.5,5.32-4.64,6.54a24.88,24.88,0,0,1-9.14,1.91,21.35,21.35,0,0,0-.41,4.51,9.79,9.79,0,0,0,2.6,7.23,8.92,8.92,0,0,0,6.82,2.72,84.78,84.78,0,0,0,22-3,165.64,165.64,0,0,0,23.6-7.91c8-3.27,16-6.68,24-10.5a3.89,3.89,0,0,1,1.23.27,1.16,1.16,0,0,1,.68,1.23,1.45,1.45,0,0,1-.14.68.75.75,0,0,1-.54.41c-.14.14-2.6,1.36-7.23,3.55s-10.51,4.63-17.74,7.5a206.32,206.32,0,0,1-23,7.36,88,88,0,0,1-22.78,3.28C641,1033.76,635.93,1029.67,635.38,1021.34Zm14-9.13c2.19-1,3.28-2.32,3.28-4.23,0-1-.82-1.37-2.46-1.37-3.27,0-5.86,2.32-7.64,7.1A20,20,0,0,0,649.43,1012.21Z" transform="translate(-516.3 -852.74)"/><path d="M712.73,1043c0-15.14,4.36-32.87,12.95-53.2a236.07,236.07,0,0,1,31.93-54.56c12.82-15.69,25.64-24,38.6-25,8.87,0,13.51,4.64,13.64,14.05-.27,6.28-3.14,13.65-8.46,22.1a167.27,167.27,0,0,1-20.73,26.2q-26.6,28.23-55.93,38.6c-4,12.14-5.87,22.64-5.87,31.51q0,9.62,2.87,13.51c1.91,2.59,4.91,4,8.73,4,13.5-1.36,29.06-7.91,46.52-19.5s31-22.1,40.24-31.52l.54-.41c1.23,0,1.78.55,1.78,1.64l-.14.82c-9.68,9.41-23.33,20-40.79,31.78-17.73,11.87-33.83,18.56-48.15,19.92C718.59,1062.13,712.73,1055.58,712.73,1043Zm65.88-72.3a166.28,166.28,0,0,0,20.74-26.19c5.18-8.45,7.77-15.27,7.77-20.19-.13-7.5-3.82-11.18-10.91-11.18q-18.42,2-38.88,31.92A254,254,0,0,0,725.82,1008Q752.84,997.75,778.61,970.73Z" transform="translate(-516.3 -852.74)"/><path d="M808.48,1042.9c0-10.23,2.87-22.24,8.46-36A282.89,282.89,0,0,1,838.36,965a336.82,336.82,0,0,1,28.1-38.88c15.14-17.6,28.1-27,39.15-28,2.86,0,5,1,6.41,2.73a10.94,10.94,0,0,1,2.05,6.55c0,12.28-11.05,30-33,53.34q-29.47,30.9-59.07,49.51c-1.91,4.64-3.14,7.92-3.82,10a26.62,26.62,0,0,0,2.32-2.86c4.77-5.87,9.55-8.87,14-8.87,3.41,0,5.18,1.37,5.18,4.23,0,4-2.32,7.64-7.09,10.78s-9.14,5-13.1,5.73a66.48,66.48,0,0,0,31.79,7.64,94.91,94.91,0,0,0,25.37-3.69,238.59,238.59,0,0,0,43.93-17.59c7.77-4.23,11.86-6.42,12.14-6.42,1,0,1.5.69,1.5,2.19l-5.19,2.59a271.82,271.82,0,0,1-26.73,13.23c-19.24,8.32-36.15,12.41-51,12.41-15.42,0-27.42-2.86-36.29-8.45a51.9,51.9,0,0,0-1.36,11.73,2.17,2.17,0,0,1-2.46,2.45C809.44,1045.35,808.48,1044.54,808.48,1042.9Zm16.1-19.1a31,31,0,0,0,7.91-5.46c2.18-2,3.28-3.82,3.28-5.32,0-1.09-.41-1.63-1.23-1.63-3.41,0-7.37,2.73-11.87,8.32a44.81,44.81,0,0,0-5.46,7A26.35,26.35,0,0,0,824.58,1023.8Zm40.79-51.15a251.08,251.08,0,0,0,36.83-43c6-9.14,9-16.5,9-22.23,0-4.23-1.77-6.41-5.45-6.41-5.6,0-13.65,5.59-24,16.64s-20.87,24.83-31.65,41.06-19.64,32.06-26.33,47.2C836.72,997.61,850.64,986.56,865.37,972.65Z" transform="translate(-516.3 -852.74)"/><path d="M929.48,1025.85a7.39,7.39,0,0,1-2.73-6.28,16.16,16.16,0,0,1,3-9.14,13.05,13.05,0,0,1,6.55-5.86c2,0,3.14.95,3.14,2.86a2,2,0,0,1-.55,1.5c-4.77,4-7.23,7.78-7.23,11.6a5.29,5.29,0,0,0,1,3.13,3.22,3.22,0,0,0,3,1.37,7.77,7.77,0,0,0,5.45-1.91,20.39,20.39,0,0,0,4-4.78c-2.59-1.22-4-3.54-4-7,0-3,1.5-4.64,4.64-4.91,2.87,0,4.23,1.77,4.23,5.18a12.68,12.68,0,0,1-1.09,4.77,22,22,0,0,0,9.27,1.91,301.33,301.33,0,0,0,39.7-3.68c12.55-2,21.14-3.82,25.65-5.32,1.22,0,1.77.55,1.77,1.5v.14c0,.82-3.68,2-10.91,3.54s-15.83,3-26.06,4.37a252.87,252.87,0,0,1-30.15,2.32,30,30,0,0,1-10.5-1.77c-2.86,5.59-6.82,8.45-12,8.45A9.8,9.8,0,0,1,929.48,1025.85Zm17.59-14c0-1.78-.54-2.6-1.5-2.6-.4,0-.54.69-.68,2.19a4.32,4.32,0,0,0,1.64,3.68A10.21,10.21,0,0,0,947.07,1011.8Z" transform="translate(-516.3 -852.74)"/><path d="M1192.48,1017.66c4.09-5,8.32-7.64,12.69-7.64a13.16,13.16,0,0,1,7.22,1.78c2.46,1.63,4.92,4.91,7.51,10,2.32,5.87,5.59,9,9.55,9.28,7.77,0,16.91-2,27.28-6.14s21.42-9,33.15-14.87c1.23,0,1.77.55,1.77,1.5a3,3,0,0,1-.41.69c-.13.27-2.45,1.5-7,3.54-24.7,12.14-42.84,18.28-54.71,18.28-7.09,0-12-1.64-14.59-5a36.28,36.28,0,0,1-5-10.09,28,28,0,0,0-1.91-4.37,3.2,3.2,0,0,0-2.86-1.63c-2.6,0-5.33,1.5-8.46,4.64s-7.64,8.73-13.37,16.77a3.66,3.66,0,0,1-3.14,2,3.28,3.28,0,0,1-2.45-.95,2.91,2.91,0,0,1-1-2.19,1.66,1.66,0,0,1,.41-1.22c5.59-11.33,8.32-18.69,8.32-22.1a2.17,2.17,0,0,0-2.45-2.46c-3.28,0-6.82,1.77-10.51,5.32a90.1,90.1,0,0,0-10.91,12.55,152.85,152.85,0,0,0-8.6,12.82,64.35,64.35,0,0,0-3.54,6.55,2.86,2.86,0,0,1-2.59,1.78c-1.37,0-2.05-1-2.05-2.73a33.7,33.7,0,0,1,1.77-7.78c1.09-3.82,2.46-7.91,4-12.41s2.73-7.51,3.68-9.55c-2.86,1.64-9.14,4.5-18.82,8.73-16.51,7.09-29.33,10.64-38.33,10.64-7.1,0-12-1.64-14.74-5a29.69,29.69,0,0,1-5-10,19.49,19.49,0,0,0-1.78-4.36,4,4,0,0,0-2.86-1.77c-3.41,0-6.82,1.63-10.37,4.77a115.54,115.54,0,0,0-11.73,12.28,3,3,0,0,1-2.59,1.36,3.38,3.38,0,0,1-2.6-1.23,3.06,3.06,0,0,1-1.09-2,9.08,9.08,0,0,1,1.23-2.87c5-9.68,7.5-16.37,7.5-20.05,0-1.77-.81-2.59-2.45-2.59-3.28,0-6.82,1.77-10.64,5.45a92.85,92.85,0,0,0-10.92,12.69c-3.41,4.91-6.27,9.28-8.45,13s-3.41,5.87-3.55,6.27a2.57,2.57,0,0,1-2.32,1.64c-1.5,0-2.32-.82-2.32-2.59,0-1.5.68-4.5,1.91-8.73s2.73-8.73,4.37-13.23a88.59,88.59,0,0,1,4.5-10.64,4.62,4.62,0,0,1,4.36-2.73c2.32.14,3.55,1.09,3.55,2.86a3.79,3.79,0,0,1-.54,1.78,130.45,130.45,0,0,0-8.33,16.91l-.13.27c.13,0,1.5-2,4.36-6q13.92-19.63,24.15-19.64c4.64.14,7,2.86,7,8a33.2,33.2,0,0,1-3.14,13.64c7-7.5,13-11.32,18.28-11.32a13.3,13.3,0,0,1,11.73,6.14c1.09,1.77,2.18,3.68,3.14,5.59,2.32,5.86,5.59,9,9.55,9.27,8,0,20.46-3.54,37-10.5,7.78-3.14,15.42-6.68,22.92-10.5a5,5,0,0,1,3-1.09c2.46.13,3.69,1.22,3.69,3a3.23,3.23,0,0,1-.55,1.63c-4,7.23-6.82,12.69-8.32,16.65l-.14.27a69.88,69.88,0,0,0,4.23-5.73q14.11-19.65,24.15-19.64c4.77.13,7.09,2.86,7.09,7.91,0,3.41-1.37,7.64-4,12.55A87.31,87.31,0,0,1,1192.48,1017.66Z" transform="translate(-516.3 -852.74)"/><path d="M1284.55,1021.34a19.63,19.63,0,0,1,3.82-12,14.18,14.18,0,0,1,11.05-5.59,6.87,6.87,0,0,1,3.68,1.09,3.66,3.66,0,0,1,1.64,3.14c0,3.13-1.5,5.32-4.64,6.54a24.92,24.92,0,0,1-9.14,1.91,20.71,20.71,0,0,0-.41,4.51,9.83,9.83,0,0,0,2.59,7.23,9,9,0,0,0,6.82,2.72,84.72,84.72,0,0,0,22-3,165.64,165.64,0,0,0,23.6-7.91c8-3.27,16-6.68,24-10.5a3.89,3.89,0,0,1,1.23.27c.41.14.68.54.68,1.23a1.55,1.55,0,0,1-.13.68.75.75,0,0,1-.55.41c-.14.14-2.59,1.36-7.23,3.55s-10.5,4.63-17.73,7.5a205.84,205.84,0,0,1-23.06,7.36,87.94,87.94,0,0,1-22.78,3.28C1290.14,1033.76,1285.09,1029.67,1284.55,1021.34Zm14-9.13c2.18-1,3.27-2.32,3.27-4.23,0-1-.82-1.37-2.45-1.37-3.28,0-5.87,2.32-7.64,7.1A20.05,20.05,0,0,0,1298.6,1012.21Z" transform="translate(-516.3 -852.74)"/><path d="M1359.43,1033.49c0-2.19,1-6,2.73-11.46a106.87,106.87,0,0,1,5.59-14.33,5.39,5.39,0,0,1,4-2.72c2.59,0,3.82.95,3.82,2.72v.14a2.93,2.93,0,0,1-.55,1.64,135.38,135.38,0,0,0-9,19.1,137.42,137.42,0,0,1,14.32-12.69c5.6-4.23,10.1-6.41,13.37-6.41a13.85,13.85,0,0,1,7.23,1.63,13.7,13.7,0,0,1,4.1,4.23c1,1.64,1.77,3.28,2.59,5a22.81,22.81,0,0,0,3,5.73q1.85,2.46,5.73,2.46c8.32,0,22-3.14,40.65-9.42l24.83-9.68h.13l.28-.28a2.34,2.34,0,0,1,1.22.82,1.94,1.94,0,0,1,.28,1v.41a1.28,1.28,0,0,1-.41.68l-7.51,3c-27.41,10.91-47.19,16.37-59.47,16.37-7.37,0-12.14-1.5-14.46-4.64a28.9,28.9,0,0,1-4.37-9.41,14.7,14.7,0,0,0-1.36-3.68c-.27-1-1.09-1.37-2.46-1.37-3.13,0-7.64,2.32-13.37,7.1a198.67,198.67,0,0,0-16.5,15.68l-.14.28c-.13,0-.41.27-.68.4a1.63,1.63,0,0,1-1.23.41C1360.25,1036.21,1359.43,1035.26,1359.43,1033.49Z" transform="translate(-516.3 -852.74)"/></svg>